<svg width="86" height="86" viewBox="0 0 86 86" fill="none" xmlns="http://www.w3.org/2000/svg">
<rect x="0.333984" y="0.666016" width="85.3333" height="85.3333" rx="42.6667" fill="#FCF4EF"/>
<g clip-path="url(#clip0_1_2393)">
<g clip-path="url(#clip1_1_2393)">
<g clip-path="url(#clip2_1_2393)">
<path d="M43.0114 18.8217C43.039 18.7769 43.0579 18.7398 43.0829 18.7079C44.2641 17.2614 45.7761 16.362 47.5931 15.9501C48.1238 15.8295 48.6502 15.7623 49.1955 15.7632C54.2657 15.7709 59.335 15.7675 64.4051 15.7675C65.2141 15.7675 65.8404 16.2767 66.042 17.0667C66.142 17.4604 66.1558 17.8533 66.1463 18.2539C66.1394 18.5753 66.1678 18.8975 66.1808 19.2197C66.1868 19.3627 66.266 19.4006 66.4013 19.3989C67.1362 19.3877 67.8711 19.3799 68.6068 19.3791C69.0066 19.3791 69.3607 19.5049 69.6174 19.8279C69.6674 19.8908 69.6855 19.9821 69.7062 20.064C69.7191 20.114 69.7088 20.1691 69.7088 20.2225C69.7088 35.0031 69.7079 49.7828 69.7156 64.5633C69.7156 64.9329 69.5502 65.1655 69.259 65.3034C69.0376 65.4076 68.7766 65.4757 68.5328 65.4774C66.733 65.4886 64.9332 65.4765 63.1335 65.4757C61.1924 65.4748 59.2514 65.4774 57.3112 65.4783C55.6174 65.4791 53.9228 65.5179 52.2299 65.4688C51.0806 65.4361 50.0217 65.7031 48.9836 66.1417C47.2372 66.88 45.7864 68.0103 44.5691 69.4551C44.1943 69.9005 43.8006 70.3296 43.4198 70.7698C43.344 70.8577 43.2587 70.8767 43.1475 70.8922C42.8193 70.937 42.5763 70.825 42.3721 70.57C42.0784 70.2029 41.7665 69.8514 41.4632 69.4922C40.0572 67.8277 38.3643 66.5724 36.288 65.866C35.4514 65.5816 34.5907 65.4533 33.7076 65.455C28.3377 65.4662 22.9686 65.4765 17.5986 65.4826C17.3953 65.4826 17.1833 65.4671 16.9895 65.4111C16.8267 65.3637 16.6699 65.2646 16.5346 65.1578C16.3632 65.0234 16.2891 64.8433 16.2891 64.6064C16.2942 49.7905 16.2934 34.9755 16.2891 20.1596C16.2891 19.9761 16.3476 19.8477 16.4734 19.728C16.7362 19.4773 17.0541 19.3782 17.4065 19.3782C18.1293 19.3799 18.853 19.3834 19.5758 19.3954C19.7266 19.398 19.8128 19.3515 19.8171 19.199C19.83 18.7717 19.8446 18.3435 19.8472 17.9153C19.8507 17.3372 19.967 16.7996 20.3417 16.337C20.6407 15.9674 21.006 15.7649 21.4928 15.7658C26.239 15.7701 30.9852 15.758 35.7314 15.7813C36.3043 15.7839 36.8798 15.9441 37.4476 16.0613C38.5297 16.2844 39.5894 16.586 40.5819 17.0882C41.4046 17.5044 42.1568 18.0221 42.8305 18.6537C42.8813 18.7002 42.9321 18.7476 43.0114 18.8217ZM21.6401 60.054C21.7271 60.0583 21.79 60.0644 21.8529 60.0644C22.2526 60.0644 22.6524 60.0644 23.053 60.0609C26.7809 60.0308 30.5096 59.9377 34.2366 60.0997C35.143 60.1393 36.0364 60.2522 36.9238 60.4469C39.1844 60.944 41.0548 62.0519 42.4566 63.9146C42.4945 63.9645 42.5798 64.0007 42.6444 64.0042C42.8736 64.0154 43.1036 64.0171 43.3319 64.0033C43.4068 63.999 43.5042 63.9542 43.5464 63.8956C44.2624 62.9023 45.1825 62.1407 46.2585 61.5807C48.1488 60.5968 50.1768 60.0962 52.3014 60.0626C54.5767 60.0265 56.8537 60.0635 59.1291 60.0652C60.7936 60.0669 62.458 60.0635 64.1225 60.0618C64.3552 60.0618 64.3552 60.0592 64.3586 59.8309C64.3595 59.7482 64.3603 59.6663 64.3603 59.5836C64.3612 47.4557 64.3612 35.3279 64.3638 23.2009C64.3638 21.402 64.3767 19.6022 64.3836 17.8033C64.3844 17.5543 64.3707 17.5405 64.1156 17.5405C58.9516 17.5405 53.7875 17.5405 48.6235 17.5405C48.5588 17.5405 48.4925 17.5345 48.4296 17.5474C47.3113 17.7792 46.2706 18.1858 45.3729 18.913C44.7448 19.4221 44.2434 20.0425 43.8092 20.7188C43.4964 21.2064 42.6978 21.2228 42.3394 20.7549C41.9112 20.1967 41.4107 19.7073 40.8343 19.3015C39.7772 18.5572 38.5926 18.1031 37.3408 17.8188C36.8212 17.7008 36.2905 17.5552 35.7641 17.5526C31.1256 17.5311 26.4845 17.5405 21.8443 17.5354C21.6547 17.5354 21.6091 17.6103 21.6168 17.7714C21.628 18.0359 21.6435 18.3004 21.6435 18.5641C21.6444 20.4112 21.6401 22.2575 21.6401 24.1046C21.6401 35.9852 21.6401 47.8658 21.6401 59.7465C21.6401 59.8447 21.6401 59.9429 21.6401 60.054ZM18.1 21.2029C18.1 21.3141 18.1 21.4011 18.1 21.4881C18.1 35.4631 18.1 49.4373 18.1 63.4123C18.1 63.7242 18.0768 63.6889 18.3731 63.6889C23.7198 63.6906 29.0657 63.6906 34.4124 63.6949C34.7398 63.6949 35.0749 63.7001 35.3945 63.7647C36.7179 64.0326 37.9559 64.5289 39.125 65.2026C40.1451 65.791 41.0488 66.5302 41.9104 67.3254C41.9638 67.3754 42.0224 67.4193 42.1042 67.4882C42.1111 67.4055 42.118 67.3607 42.118 67.3168C42.1197 66.8636 42.1171 66.4113 42.1249 65.9581C42.1266 65.8341 42.093 65.7815 41.9638 65.7669C41.5606 65.7221 41.284 65.5067 41.135 65.1259C41.1074 65.057 41.0566 64.9949 41.0092 64.9355C39.6428 63.1831 37.812 62.2639 35.6401 62.0037C34.7312 61.8951 33.811 61.8409 32.8961 61.8365C29.6033 61.821 26.3096 61.8391 23.016 61.8391C22.3543 61.8391 21.6875 61.9184 21.0361 61.7185C20.7337 61.6255 20.4848 61.4635 20.2832 61.224C19.9627 60.8432 19.8653 60.3814 19.8619 59.9084C19.8498 57.8795 19.8558 55.8506 19.8558 53.8208C19.8558 43.1222 19.855 32.4236 19.8524 21.725C19.8524 21.5863 19.8248 21.4459 19.7938 21.3098C19.7852 21.2667 19.7223 21.2081 19.6835 21.2073C19.1666 21.2004 18.6497 21.2029 18.1 21.2029ZM43.9083 67.5167C43.9789 67.4529 44.0229 67.415 44.0642 67.3745C45.4659 65.9874 47.077 64.9269 48.9302 64.2351C49.8916 63.8758 50.8704 63.6432 51.9042 63.6716C52.5392 63.6889 53.1741 63.6837 53.8091 63.6845C58.4372 63.6863 63.0663 63.6863 67.6945 63.6923C67.878 63.6923 67.9176 63.6372 67.9176 63.4623C67.9133 49.4588 67.9142 35.4562 67.9142 21.4528C67.9142 21.3847 67.9142 21.3158 67.9142 21.2297C67.4825 21.2297 67.0776 21.2297 66.6727 21.2297C66.1454 21.2297 66.1454 21.2297 66.1454 21.7612C66.1454 31.5009 66.1446 41.2397 66.1446 50.9794C66.1446 53.8845 66.1506 56.7905 66.1377 59.6956C66.136 60.054 66.0774 60.4262 65.9662 60.7657C65.887 61.0077 65.7069 61.2421 65.5139 61.4152C65.1064 61.7805 64.5766 61.8365 64.0571 61.8374C60.946 61.846 57.835 61.8391 54.724 61.8452C53.6135 61.8469 52.5004 61.8279 51.3924 61.8951C49.8322 61.9899 48.365 62.4586 46.9883 63.1995C46.1017 63.6759 45.3806 64.3453 44.8137 65.1707C44.6078 65.4705 44.4002 65.7255 44.016 65.7609C43.891 65.7729 43.8884 65.8565 43.8884 65.9495C43.8902 66.426 43.891 66.9024 43.8928 67.3788C43.8928 67.4124 43.8996 67.446 43.9083 67.5167Z" fill="#F78431"/>
<path d="M47.488 44.4497C47.7593 41.8892 48.3797 39.2986 49.9563 37.0207C50.4982 36.2384 51.1305 35.538 51.8465 34.9116C52.0197 34.76 52.0197 34.7333 51.8663 34.6015C50.3491 33.2962 49.2903 31.6748 48.5821 29.8148C48.0609 28.4449 47.724 27.0277 47.5345 25.576C47.5017 25.3261 47.488 25.0728 47.4845 24.8204C47.4768 24.3224 47.7912 23.9503 48.2478 23.8986C48.6786 23.8503 49.1051 24.1544 49.1973 24.618C49.2808 25.0367 49.3222 25.4649 49.3799 25.8887C49.4075 26.0921 49.4238 26.2971 49.4592 26.4996C49.4669 26.5426 49.5315 26.5849 49.5789 26.6098C49.6117 26.6271 49.6599 26.6133 49.7004 26.6133C52.2523 26.6141 54.8041 26.6159 57.3569 26.6167C57.4215 26.6167 57.4861 26.6167 57.5507 26.6133C57.7765 26.5995 57.9022 26.5004 57.9358 26.2781C58.0125 25.7741 58.078 25.2676 58.1461 24.7627C58.2098 24.2888 58.5303 23.9391 58.9413 23.8994C59.4487 23.8503 59.8993 24.2415 59.8898 24.7601C59.8829 25.134 59.8373 25.5088 59.783 25.8801C59.6107 27.0647 59.3557 28.2313 58.9602 29.3642C58.2477 31.4052 57.1251 33.1756 55.4985 34.6135C55.3926 34.7074 55.365 34.7824 55.483 34.8815C57.5447 36.6071 58.6742 38.8816 59.3462 41.4283C59.6098 42.4285 59.7916 43.4426 59.8881 44.4712C59.9027 44.6263 59.8915 44.7909 59.8553 44.9425C59.7657 45.3138 59.515 45.5223 59.1368 45.568C58.7922 45.6093 58.4915 45.5025 58.3278 45.1924C58.2167 44.9813 58.1607 44.7323 58.1185 44.4936C58.047 44.0896 58.0099 43.6804 57.9496 43.2746C57.9048 42.9722 57.7859 42.8722 57.4766 42.8705C56.9356 42.8671 56.3945 42.8705 55.8535 42.8705C53.8952 42.8705 51.9369 42.8722 49.9787 42.8671C49.5763 42.8662 49.4359 43.0144 49.4023 43.3659C49.3549 43.8553 49.2903 44.3455 49.1981 44.8288C49.0921 45.381 48.6726 45.6516 48.141 45.5533C47.7008 45.468 47.4587 45.1165 47.488 44.4497ZM57.3974 41.026C57.2208 40.5762 57.0579 40.1687 56.9003 39.7595C56.7297 39.3175 56.6056 39.2314 56.1249 39.2348C55.4313 39.2391 54.7387 39.2426 54.0451 39.2469C53.1465 39.2529 52.2471 39.2598 51.3485 39.2667C50.8488 39.2701 50.4947 39.4847 50.3328 39.9732C50.2466 40.2342 50.1596 40.4952 50.0777 40.7572C49.995 41.0234 49.9976 41.0251 50.2673 41.0251C52.565 41.0251 54.8619 41.0251 57.1596 41.0251C57.2285 41.026 57.2974 41.026 57.3974 41.026ZM57.4163 28.4466C54.9136 28.4466 52.4504 28.4466 49.9528 28.4466C50.1682 28.9524 50.375 29.4296 50.574 29.9095C50.6601 30.118 50.8238 30.2085 51.0289 30.2093C52.7985 30.2145 54.5681 30.2136 56.3368 30.2102C56.5057 30.2102 56.6814 30.1594 56.7547 29.9965C56.9821 29.49 57.1915 28.9756 57.4163 28.4466ZM51.8508 32.1469C51.9266 32.2176 51.9585 32.2512 51.9938 32.2805C52.4677 32.6828 52.9424 33.0852 53.4171 33.4875C53.6213 33.6598 53.7505 33.6615 53.9581 33.4866C54.4294 33.0903 54.8981 32.6897 55.3702 32.2934C55.415 32.2564 55.471 32.2331 55.5218 32.2029C55.5123 32.1754 55.5029 32.1469 55.4934 32.1194C55.4193 32.0927 55.3452 32.0444 55.2711 32.0436C54.2149 32.0384 53.1577 32.0384 52.1015 32.0444C52.0257 32.0444 51.9516 32.1039 51.8508 32.1469ZM51.9111 37.2567C51.9085 37.2817 51.9059 37.3067 51.9033 37.3317C51.9886 37.3575 52.0739 37.4049 52.1592 37.4058C53.1819 37.4109 54.2037 37.4092 55.2263 37.4092C55.2616 37.4092 55.3013 37.4187 55.3305 37.4049C55.3693 37.3877 55.4158 37.3584 55.4288 37.3239C55.44 37.2938 55.4193 37.2343 55.3926 37.2111C54.8963 36.7881 54.4001 36.3659 53.8987 35.9498C53.7737 35.8455 53.6178 35.8335 53.4912 35.9377C52.9605 36.3711 52.4366 36.8156 51.9111 37.2567Z" fill="#F78431"/>
<path d="M32.3075 38.3788C34.3123 38.3788 36.3179 38.3779 38.3227 38.3805C38.4632 38.3805 38.607 38.3848 38.7432 38.415C39.1662 38.5106 39.4289 38.8423 39.4298 39.2593C39.4307 39.6633 39.1584 40.0062 38.7423 40.1096C38.6182 40.1406 38.4873 40.1518 38.3589 40.1518C34.3424 40.1535 30.3268 40.1535 26.3103 40.1518C26.1819 40.1518 26.051 40.1415 25.926 40.1156C25.4556 40.0174 25.1894 39.6754 25.2101 39.211C25.2299 38.7673 25.5375 38.4382 26.0113 38.4038C26.4507 38.3719 26.8927 38.3753 27.3329 38.3745C28.9914 38.3719 30.649 38.3736 32.3075 38.3736C32.3075 38.3736 32.3075 38.3771 32.3075 38.3788Z" fill="#F78431"/>
<path d="M29.6437 31.1165C28.5332 31.1165 27.4227 31.1173 26.3113 31.1147C26.1829 31.1147 26.0529 31.1035 25.9271 31.0786C25.4687 30.9872 25.1879 30.64 25.2017 30.1955C25.2154 29.7501 25.4989 29.4373 25.9624 29.365C26.0951 29.3443 26.2312 29.3314 26.3656 29.3314C28.5634 29.3305 30.7612 29.3314 32.9589 29.3348C33.0933 29.3348 33.2303 29.346 33.3613 29.3727C33.8196 29.4649 34.0755 29.7759 34.0729 30.2222C34.0703 30.6711 33.7989 30.9933 33.3423 31.0794C33.2165 31.1035 33.0865 31.1147 32.9581 31.1147C31.8536 31.1173 30.7491 31.1165 29.6437 31.1165Z" fill="#F78431"/>
<path d="M29.6497 46.5151C30.755 46.5151 31.8595 46.5143 32.9649 46.5168C33.0872 46.5168 33.2113 46.5272 33.3319 46.5487C33.8195 46.6357 34.0866 46.9536 34.0754 47.4232C34.0642 47.8807 33.7687 48.2184 33.2897 48.2649C32.9106 48.302 32.5272 48.2985 32.1455 48.2994C30.2054 48.302 28.266 48.3028 26.3259 48.2968C26.1415 48.2959 25.9485 48.2684 25.7736 48.2106C25.3954 48.0857 25.1912 47.7669 25.2015 47.3724C25.2119 46.9821 25.4238 46.6986 25.8132 46.5866C25.9692 46.5418 26.1363 46.5203 26.2983 46.5194C27.4166 46.5125 28.5331 46.5151 29.6497 46.5151Z" fill="#F78431"/>
<path d="M56.3472 49.1833C55.2418 49.1833 54.1373 49.185 53.032 49.1816C52.8915 49.1816 52.7494 49.1695 52.6124 49.1402C52.1696 49.0437 51.9102 48.7207 51.9171 48.2908C51.924 47.8453 52.2032 47.5119 52.6555 47.4378C52.8622 47.4042 53.0768 47.3999 53.287 47.3999C55.4201 47.3973 57.5542 47.3965 59.6873 47.4025C59.8717 47.4034 60.0638 47.4352 60.2379 47.4964C60.6169 47.63 60.8091 47.9436 60.7918 48.3442C60.7755 48.7258 60.5644 49.0041 60.1819 49.1135C60.0259 49.1583 59.8588 49.1807 59.6968 49.1816C58.5811 49.1868 57.4637 49.1842 56.3472 49.1833Z" fill="#F78431"/>
<path d="M51.0021 53.7089C49.8735 53.7089 48.7449 53.7141 47.6171 53.7037C47.4233 53.702 47.2148 53.6658 47.0408 53.5866C46.6824 53.4246 46.5058 53.0179 46.5885 52.644C46.6755 52.2486 46.9943 51.9746 47.4155 51.9514C47.6912 51.9358 47.9678 51.9393 48.2443 51.9393C50.2776 51.9402 52.3117 51.9419 54.3449 51.9453C54.4845 51.9453 54.6283 51.9514 54.7645 51.9815C55.2202 52.0823 55.4795 52.4304 55.4442 52.8723C55.4072 53.3445 55.0858 53.6744 54.618 53.7011C54.3311 53.7175 54.0425 53.7106 53.7547 53.7115C52.8381 53.7123 51.9214 53.7115 51.0039 53.7115C51.0021 53.7098 51.0021 53.7089 51.0021 53.7089Z" fill="#F78431"/>
<path d="M29.641 52.7956C28.5305 52.7956 27.4191 52.7956 26.3086 52.7948C26.1974 52.7948 26.0837 52.7939 25.9743 52.7741C25.4557 52.6819 25.1774 52.3407 25.2084 51.8445C25.2377 51.3844 25.5858 51.0501 26.0898 51.0338C26.6592 51.0157 27.2296 51.0208 27.7999 51.02C29.504 51.0183 31.209 51.0191 32.9131 51.0208C33.0475 51.0208 33.1854 51.0191 33.3172 51.045C33.8341 51.144 34.1124 51.5024 34.0753 52.0039C34.0417 52.4493 33.6928 52.768 33.1845 52.7827C32.597 52.7991 32.0094 52.7939 31.4218 52.7956C30.8282 52.7973 30.2346 52.7956 29.641 52.7956Z" fill="#F78431"/>
<path d="M35.8719 26.5978C35.0672 26.5978 34.2617 26.5986 33.457 26.5969C33.3398 26.5969 33.2218 26.5883 33.1064 26.5693C32.6032 26.4892 32.3413 26.1791 32.3448 25.6768C32.3482 25.2072 32.6187 24.91 33.1236 24.8411C33.2976 24.817 33.4742 24.8144 33.65 24.8135C35.2008 24.8118 36.7524 24.8109 38.3032 24.8144C38.4488 24.8144 38.5978 24.8264 38.7391 24.86C39.1785 24.9643 39.4413 25.308 39.4266 25.7388C39.4128 26.148 39.1173 26.4815 38.6874 26.5607C38.5556 26.5848 38.4195 26.5952 38.2851 26.596C37.4821 26.5995 36.6774 26.5978 35.8719 26.5978Z" fill="#F78431"/>
<path d="M35.8767 33.8453C36.7176 33.8453 37.5576 33.8427 38.3984 33.8478C38.5371 33.8487 38.681 33.8702 38.8128 33.9116C39.2289 34.0425 39.465 34.4053 39.4271 34.8283C39.3909 35.2306 39.0825 35.5511 38.656 35.5959C38.3648 35.6261 38.0702 35.6286 37.7764 35.6286C36.3307 35.6295 34.8851 35.6278 33.4394 35.62C33.2654 35.6192 33.0853 35.5985 32.9182 35.5528C32.5865 35.4606 32.3763 35.191 32.3496 34.8653C32.3151 34.4432 32.465 34.1141 32.7958 33.9676C32.9569 33.8961 33.1448 33.8539 33.3214 33.8513C34.1726 33.8392 35.0246 33.8453 35.8767 33.8453Z" fill="#F78431"/>
<path d="M35.8537 43.7563C35.0249 43.7563 34.197 43.7571 33.3682 43.7554C33.2682 43.7554 33.1666 43.7554 33.0701 43.7364C32.5575 43.6374 32.3085 43.2953 32.349 42.7586C32.3817 42.3244 32.7306 42.003 33.214 41.9979C34.3658 41.9867 35.5177 41.9884 36.6687 41.9875C37.233 41.9867 37.7974 41.9884 38.3608 41.9927C38.4831 41.9936 38.6089 41.9996 38.727 42.028C39.1965 42.1409 39.4713 42.5156 39.4274 42.9662C39.3852 43.3944 39.0285 43.7356 38.5684 43.7494C37.9636 43.7675 37.358 43.7606 36.7532 43.7632C36.4534 43.7649 36.1535 43.7632 35.8537 43.7632C35.8537 43.7606 35.8537 43.7588 35.8537 43.7563Z" fill="#F78431"/>
<path d="M27.8544 35.6043C27.2384 35.6043 26.6207 35.6276 26.0056 35.5974C25.505 35.5724 25.1828 35.1787 25.2052 34.7023C25.2285 34.2198 25.5946 33.8528 26.0857 33.8502C27.266 33.8433 28.4472 33.8425 29.6275 33.8502C30.122 33.8537 30.4882 34.2129 30.5062 34.6799C30.5261 35.2046 30.2357 35.5707 29.7033 35.5991C29.089 35.6319 28.4713 35.6069 27.8544 35.6069C27.8544 35.6052 27.8544 35.6043 27.8544 35.6043Z" fill="#F78431"/>
<path d="M27.8668 24.8127C28.4251 24.8127 28.9834 24.8092 29.5408 24.8135C30.0129 24.8178 30.3481 25.0367 30.4661 25.4063C30.6685 26.0412 30.2559 26.5831 29.5451 26.5909C28.6233 26.6012 27.7005 26.5969 26.7778 26.5978C26.5719 26.5978 26.3669 26.5969 26.161 26.5935C25.5967 26.5831 25.2064 26.2213 25.2012 25.7052C25.1961 25.1969 25.5872 24.829 26.1575 24.8152C26.4453 24.8083 26.733 24.8118 27.0208 24.8109C27.3025 24.8101 27.5851 24.8109 27.8668 24.8109V24.8127Z" fill="#F78431"/>
<path d="M27.853 43.754C27.2594 43.754 26.6649 43.7643 26.0713 43.7514C25.5122 43.7384 25.14 43.2827 25.2158 42.7313C25.2718 42.3229 25.6311 42.005 26.08 41.9981C26.8674 41.9861 27.6557 41.9887 28.4432 41.9878C28.8309 41.9869 29.2194 41.9861 29.6071 41.9956C30.1585 42.0093 30.5134 42.366 30.5091 42.8898C30.5057 43.4007 30.1464 43.7479 29.5985 43.7548C29.0161 43.7626 28.4345 43.7565 27.8521 43.7565C27.853 43.7548 27.853 43.754 27.853 43.754Z" fill="#F78431"/>
<path d="M48.347 49.1531C47.9895 49.1531 47.6268 49.1876 47.2744 49.1445C46.8307 49.0894 46.5507 48.6974 46.5714 48.2494C46.5912 47.8126 46.9194 47.4438 47.3623 47.4292C48.0257 47.4068 48.6899 47.4076 49.3533 47.4326C49.7746 47.4481 50.0735 47.8048 50.0916 48.2364C50.1114 48.7223 49.865 49.0833 49.4188 49.1454C49.0655 49.1945 48.7046 49.185 48.347 49.2005C48.347 49.1841 48.347 49.1686 48.347 49.1531Z" fill="#F78431"/>
<path d="M37.6598 46.544C38.0113 46.544 38.3672 46.5104 38.7144 46.5527C39.1537 46.6061 39.4312 46.9679 39.4294 47.4004C39.4277 47.8183 39.1296 48.1827 38.7135 48.2645C38.5929 48.2878 38.4688 48.3016 38.3465 48.3007C37.7942 48.2973 37.2411 48.3128 36.6915 48.2714C36.1685 48.2318 35.8894 47.8613 35.9092 47.3289C35.9264 46.8619 36.2529 46.5458 36.7613 46.5225C37.0602 46.5087 37.3609 46.5199 37.6598 46.5199C37.6598 46.5268 37.6598 46.5354 37.6598 46.544Z" fill="#F78431"/>
<path d="M37.6453 31.09C37.3111 31.09 36.9733 31.1219 36.6442 31.0822C36.1566 31.0245 35.893 30.6713 35.9068 30.1716C35.9197 29.7124 36.2074 29.3798 36.6865 29.36C37.3369 29.3333 37.9891 29.335 38.6396 29.3617C39.0936 29.3798 39.4089 29.7391 39.4287 30.1811C39.4477 30.6144 39.1522 31.0142 38.7171 31.0753C38.3647 31.1253 38.0037 31.115 37.6471 31.1305C37.6453 31.1175 37.6453 31.1038 37.6453 31.09Z" fill="#F78431"/>
<path d="M38.5168 51.9186C38.5168 52.4251 38.1593 52.7887 37.6587 52.7887C37.1642 52.7887 36.7722 52.3967 36.7774 51.9082C36.7826 51.4318 37.1806 51.0295 37.6484 51.0269C38.136 51.0243 38.5168 51.4154 38.5168 51.9186Z" fill="#F78431"/>
</g>
</g>
</g>
<defs>
<clipPath id="clip0_1_2393">
<rect width="56" height="56" fill="white" transform="translate(15.001 15.3325)"/>
</clipPath>
<clipPath id="clip1_1_2393">
<rect width="56" height="56" fill="white" transform="translate(15.001 15.3325)"/>
</clipPath>
<clipPath id="clip2_1_2393">
<rect width="56" height="56" fill="white" transform="translate(15.001 15.3325)"/>
</clipPath>
</defs>
</svg>
